<svg width="48" height="48" viewBox="0 0 48 48" xmlns="http://www.w3.org/2000/svg"><path d="M2.5 23v14A1.5 1.5 0 0 0 4 38.5h5a1.5 1.5 0 0 0 1.5-1.5v-1.5h27V37a1.5 1.5 0 0 0 1.5 1.5h5a1.5 1.5 0 0 0 1.5-1.5V23L41 18.5c-.933-1.833-1.767-3.333-2.5-4.5-.733-1.167-1.733-2.5-3-4-3.74-.333-7.565-.5-11.478-.5-3.913 0-7.754.167-11.522.5-1.267 1.5-2.267 2.833-3 4-.733 1.167-1.567 2.667-2.5 4.5L2.5 23zM15 27l2-2.5h14l2 2.5c-1.333 3.667-2.333 5.5-3 5.5H18c-.667 0-1.667-1.833-3-5.5zm-8.25-8.5h34.5m2.25 5.075c0 .97-.083 1.63-.25 1.978-.25.522-.75 1.022-1.25 1.022h-2c-.5 0-4.25-1-4.75-1.5a3.917 3.917 0 0 1-.75-1 91.61 91.61 0 0 1 4.5-.5c1.232-.1 2.732-.1 4.5 0zm-39 0c1.768-.1 3.268-.1 4.5 0 1.232.1 2.732.266 4.5.5a3.917 3.917 0 0 1-.75 1c-.5.5-4.25 1.5-4.75 1.5H6c-.5 0-1-.5-1.25-1.022-.167-.348-.25-1.007-.25-1.978z" stroke="#fff" fill="none"/></svg>