<svg width="48" height="48" viewBox="0 0 48 48" xmlns="http://www.w3.org/2000/svg"><path d="M37.5 18.5h4v10h-4v-10zm0 5H24h13.5zm-25-2l11.5 2-11.5 2v3h-8v-10h8v3zm27 7v4m-6 0h12c.6 0 1 .4 1 1v3c0 .6-.4 1-1 1h-12c-.6 0-1-.4-1-1v-3c0-.6.4-1 1-1zm-25-4v4m-6 0h12c.6 0 1 .4 1 1v3c0 .6-.4 1-1 1h-12c-.6 0-1-.4-1-1v-3c0-.6.4-1 1-1zm37-18v4m-6-9h12c.6 0 1 .4 1 1v3c0 .6-.4 1-1 1h-12c-.6 0-1-.4-1-1v-3c0-.6.4-1 1-1zm-25 5v4m-6-9h12c.6 0 1 .4 1 1v3c0 .6-.4 1-1 1h-12c-.6 0-1-.4-1-1v-3c0-.6.4-1 1-1z" stroke="currentColor" fill="none"/></svg>