<?xml version="1.0" standalone="no"?>
<!DOCTYPE svg PUBLIC "-//W3C//DTD SVG 20010904//EN"
 "http://www.w3.org/TR/2001/REC-SVG-20010904/DTD/svg10.dtd">
<svg version="1.0" xmlns="http://www.w3.org/2000/svg"
 width="700.000000pt" height="700.000000pt" viewBox="0 0 700.000000 700.000000"
 preserveAspectRatio="xMidYMid meet">
<metadata>
Created by potrace 1.11, written by Peter Selinger 2001-2013
</metadata>
<g transform="translate(0.000000,700.000000) scale(0.100000,-0.100000)"
fill="#000000" stroke="none">
<path d="M1050 4693 c-270 -42 -489 -147 -674 -323 -282 -268 -419 -663 -361
-1040 21 -141 50 -232 110 -356 159 -328 443 -555 805 -644 109 -27 326 -37
440 -21 182 27 373 102 521 206 l78 55 68 -49 c297 -216 703 -279 1065 -165
100 32 257 110 339 170 l59 44 59 -44 c82 -60 239 -138 339 -170 362 -114 768
-51 1065 165 l68 49 78 -55 c148 -104 339 -179 521 -206 114 -16 331 -6 440
21 219 54 396 150 554 300 282 268 419 663 361 1040 -21 141 -50 232 -110 356
-159 328 -443 555 -805 644 -109 27 -326 37 -440 21 -182 -27 -373 -102 -521
-206 l-78 -55 -68 49 c-297 216 -703 279 -1065 165 -100 -32 -257 -110 -339
-170 l-59 -44 -59 44 c-82 60 -239 138 -339 170 -362 114 -768 51 -1065 -165
l-68 -49 -77 54 c-209 146 -442 217 -696 215 -66 -1 -132 -3 -146 -6z m385
-282 c90 -23 263 -105 313 -148 l33 -28 -42 -60 c-136 -198 -203 -422 -203
-675 0 -253 67 -477 203 -675 l42 -60 -33 -28 c-50 -43 -223 -125 -313 -148
-315 -80 -654 12 -885 241 -190 187 -284 409 -284 670 0 261 94 483 284 670
133 132 274 208 470 251 111 25 298 20 415 -10z m1530 0 c44 -12 114 -37 155
-57 78 -37 190 -105 190 -115 0 -4 -21 -37 -46 -75 -134 -200 -197 -413 -197
-664 0 -251 63 -464 197 -664 25 -38 46 -71 46 -75 0 -10 -112 -78 -190 -115
-126 -60 -215 -79 -375 -80 -158 -1 -238 13 -370 67 -82 33 -215 114 -215 131
0 5 10 23 23 40 139 185 219 440 219 696 0 256 -80 511 -219 696 -13 17 -23
35 -23 40 0 26 174 121 288 159 152 49 362 56 517 16z m1527 0 c43 -11 109
-33 146 -49 75 -31 202 -110 202 -126 0 -5 -10 -23 -23 -40 -227 -300 -284
-760 -141 -1130 34 -89 94 -199 141 -262 13 -17 23 -35 23 -40 0 -17 -133 -98
-215 -131 -132 -54 -212 -68 -370 -67 -160 1 -249 20 -375 80 -78 37 -190 105
-190 115 0 4 21 37 46 75 134 200 197 413 197 664 0 251 -63 464 -197 664 -25
38 -46 71 -46 75 0 19 199 126 288 156 151 49 363 56 514 16z m1468 13 c196
-37 354 -119 490 -254 190 -187 284 -409 284 -670 0 -261 -94 -483 -284 -670
-231 -229 -570 -321 -885 -241 -90 23 -263 105 -313 148 l-33 28 42 60 c81
117 150 283 185 447 25 114 25 342 0 456 -35 164 -104 330 -185 447 l-42 60
33 28 c41 34 185 109 256 132 138 45 312 56 452 29z m-3948 -446 c44 -76 80
-163 104 -255 28 -103 26 -358 -4 -468 -21 -75 -94 -236 -127 -279 -15 -20
-15 -20 -30 0 -8 10 -32 53 -54 94 -129 246 -140 551 -29 800 31 70 89 170 98
170 3 0 22 -28 42 -62z m1519 19 c47 -74 78 -143 106 -234 25 -81 27 -101 27
-263 0 -163 -2 -181 -28 -265 -25 -82 -87 -214 -121 -259 -15 -20 -15 -20 -30
0 -34 45 -96 177 -121 259 -26 84 -28 102 -28 265 0 162 2 182 27 263 15 49
39 112 53 140 31 62 77 137 84 137 3 0 17 -19 31 -43z m1530 0 c136 -218 178
-495 113 -742 -16 -60 -100 -243 -129 -279 -15 -20 -15 -20 -30 0 -22 30 -92
173 -110 229 -63 190 -59 438 11 624 25 66 103 211 113 211 3 0 18 -19 32 -43z"/>
</g>
</svg>
